<?xml version="1.0" encoding="UTF-8"?>
<svg version="1.1" xmlns="http://www.w3.org/2000/svg" width="1920" height="1080">
<path d="M0 0 C2.39728742 0.00568409 4.79456763 0.00847732 7.1918602 0.0110817 C34.24572039 0.05367544 61.14041233 0.84544087 88.0941124 3.31805801 C89.01019272 3.40055801 89.92627304 3.48305801 90.87011337 3.56805801 C121.50517436 6.34686953 151.81922284 10.91414419 182.0941124 16.31805801 C183.3274733 16.53785324 183.3274733 16.53785324 184.58575058 16.76208878 C239.97376916 26.69249728 294.53105686 42.30480222 347.0941124 62.31805801 C347.80199905 62.58482346 348.50988571 62.8515889 349.23922348 63.12643814 C351.31326027 63.91098247 353.38202529 64.70801732 355.44958115 65.50946426 C356.63962753 65.96780655 357.82967392 66.42614883 359.05578232 66.89838028 C363.20573179 68.83746876 366.07311101 71.18748546 368.0941124 75.31805801 C370.26101482 81.39686676 370.37347709 86.96369071 370.34135056 93.38025284 C370.34376497 94.48607688 370.34617939 95.59190093 370.34866697 96.73123479 C370.35429784 100.4330877 370.34564476 104.13476757 370.33703232 107.8366127 C370.33810548 110.49331481 370.33996469 113.15000574 370.34278488 115.80670547 C370.34782225 122.27653518 370.34218827 128.74631368 370.33293458 135.21613702 C370.32251757 142.77387306 370.32262178 150.3315982 370.32310716 157.88934007 C370.32360781 171.40237397 370.31445185 184.91538422 370.29992294 198.42840958 C370.28589158 211.48570563 370.27874982 224.54298087 370.27941513 237.60028458 C370.27945509 238.40161641 370.27949504 239.20294825 370.27953621 240.02856287 C370.27957656 240.82861448 370.27961692 241.62866609 370.2796585 242.45296168 C370.28035312 257.37142873 370.27442384 272.28988705 370.26550528 287.20835124 C370.26251663 292.45010794 370.26142898 297.691863 370.26097298 302.93362045 C370.26028209 309.35596592 370.25570007 315.77829673 370.24664017 322.200636 C370.24210133 325.464715 370.23949346 328.72877245 370.24023438 331.99285507 C370.25278317 421.06084093 352.93534671 505.01114417 280.0941124 634.31805801 C279.61103622 634.99255997 279.12796005 635.66706192 278.63024521 636.36200333 C275.49904913 640.71668923 272.31530549 645.02960947 269.0941124 649.31805801 C268.46641953 650.1562709 268.46641953 650.1562709 267.82604599 651.01141739 C261.54511347 659.37292412 254.92425241 667.40058505 248.0941124 675.31805801 C247.45602646 676.05797989 246.81794052 676.79790176 246.16051865 677.56024551 C244.4829017 679.48969872 242.78899852 681.40376399 241.0941124 683.31805801 C240.51403427 683.98224747 239.93395615 684.64643692 239.3362999 685.33075333 C232.75827148 692.76972958 225.79496353 699.80334734 218.77477646 706.82269669 C216.72467222 708.87499225 214.68272489 710.93517716 212.6409874 712.99579239 C206.16313216 719.50071674 199.69433236 725.77061842 192.45153427 731.42816544 C189.83580176 733.52513989 187.40734574 735.76820758 184.9691124 738.06805801 C178.36662856 744.14158749 171.22863375 749.4747201 164.05260849 754.84735489 C162.40851225 756.08196418 160.77536507 757.33113543 159.14489365 758.58368301 C133.60893423 778.11776 106.35413839 794.86447632 77.92516708 809.81805801 C75.19915694 811.26240144 72.4930052 812.73849337 69.7894249 814.22430801 C52.72457752 823.49641107 34.8756867 831.02441833 16.97431564 838.51323318 C15.12603261 839.3043945 13.30135634 840.14998977 11.47765732 840.99628067 C3.77221964 844.0063997 -3.87340551 843.04802765 -11.45666885 840.07977676 C-13.72170191 839.07987185 -15.97541426 838.05401171 -18.2183876 837.00555801 C-19.4402955 836.45478544 -20.66313488 835.90607528 -21.88684464 835.35931778 C-24.37361886 834.24298009 -26.85315685 833.11255903 -29.32727432 831.96844864 C-32.63669227 830.44220595 -35.95729915 828.9450023 -39.28479385 827.45868301 C-76.88129267 810.57905532 -112.47588788 790.4559045 -145.9058876 766.31805801 C-147.11003311 765.45398331 -147.11003311 765.45398331 -148.33850479 764.57245255 C-162.76964105 754.19627455 -176.69352945 743.25450829 -189.8043251 731.23993301 C-191.70624903 729.50062712 -193.63908492 727.8104267 -195.5933876 726.13055801 C-209.03797922 714.39021041 -222.55089564 702.06605102 -234.0855751 688.41571426 C-236.03377913 686.17068087 -238.06271028 684.0105084 -240.1012001 681.84759903 C-246.34709201 675.20054981 -252.06511305 668.27049808 -257.5987587 661.02362442 C-258.85272578 659.38742457 -260.12054727 657.76320379 -261.39416885 656.14227676 C-283.01575088 628.45147873 -301.05812513 598.62939478 -316.9058876 567.31805801 C-317.29985733 566.54623184 -317.69382706 565.77440567 -318.09973526 564.97919083 C-338.48823544 524.74180669 -351.74516955 480.44691948 -359.2808876 436.06805801 C-359.39635941 435.40518784 -359.51183121 434.74231766 -359.63080215 434.0593605 C-364.00137603 408.60773187 -365.37084851 382.90111361 -365.29806161 357.11936367 C-365.29109322 353.44213118 -365.30183638 349.76493564 -365.31000137 346.08771133 C-365.32314801 338.94085977 -365.32055076 331.79410413 -365.31176345 324.64724923 C-365.30492277 318.83858659 -365.30409729 313.0299504 -365.3073349 307.22128487 C-365.3077946 306.38728459 -365.3082543 305.55328432 -365.30872793 304.69401131 C-365.30968728 302.99882098 -365.31065992 301.30363065 -365.3116457 299.60844033 C-365.3201403 283.82523179 -365.31045324 268.04207607 -365.2942446 252.2588762 C-365.28078952 238.73748032 -365.2832235 225.21616156 -365.29700089 211.694767 C-365.3130638 195.92329485 -365.31937654 180.15186834 -365.31016409 164.38038915 C-365.30920857 162.6992823 -365.30826545 161.01817543 -365.3073349 159.33706856 C-365.30687207 158.51024916 -365.30640925 157.68342977 -365.3059324 156.83155524 C-365.3033489 151.02299384 -365.30769843 145.21446164 -365.31477356 139.40590477 C-365.32319415 132.33913318 -365.32089427 125.27246153 -365.30493133 118.20570136 C-365.29706496 114.60540928 -365.2939298 111.00528378 -365.30387878 107.40499306 C-365.3145091 103.49925788 -365.3017913 99.59379379 -365.28683853 95.68806839 C-365.2935307 94.55715446 -365.30022286 93.42624053 -365.30711782 92.26105648 C-365.24975402 84.535155 -364.23933967 78.0708887 -360.11780167 71.44232559 C-357.42693523 68.85808399 -354.97594527 67.71558111 -351.5152626 66.32977676 C-350.89939285 66.07967346 -350.2835231 65.82957016 -349.64899063 65.57188797 C-347.74086394 64.80353693 -345.82517547 64.05803413 -343.9058876 63.31805801 C-342.22076065 62.65991104 -342.22076065 62.65991104 -340.50159073 61.98846817 C-260.47784952 31.32834562 -175.68819681 12.36769124 -90.4683876 4.06805801 C-89.68995499 3.99083511 -88.91152237 3.91361221 -88.10950089 3.83404922 C-58.80764732 0.97217456 -29.42836472 -0.07115737 0 0 Z " fill="#E41838" transform="translate(958.9058876037598,129.68194198608398)"/>
<path d="M0 0 C2.05417281 0.00008265 4.10834147 -0.0012784 6.16251373 -0.00266266 C28.26799536 -0.00780335 50.25853162 0.49494396 72.27329254 2.56258392 C73.73201479 2.69713778 75.19075554 2.83149123 76.64951324 2.9656601 C79.59834237 3.23808422 82.54675769 3.51454999 85.49497223 3.79354095 C89.39088514 4.16071771 93.28882689 4.50158256 97.18735504 4.83992767 C139.39727428 8.6224343 182.43707431 15.46037343 223.35630035 26.55574799 C226.98204794 27.52872961 230.62776442 28.41726881 234.27329254 29.31258392 C268.05278561 37.76619026 300.6957812 48.93246642 333.71079254 60.18758392 C333.71079254 120.24758392 333.71079254 180.30758392 333.71079254 242.18758392 C315.37898109 246.77053679 315.37898109 246.77053679 307.61313629 248.30086517 C305.82129907 248.66150354 304.02946995 249.02218213 302.23764801 249.38289642 C301.32609955 249.5649765 300.41455109 249.74705658 299.47537994 249.93465424 C285.64385442 252.70101906 271.83392876 255.53102449 258.08579254 258.68758392 C233.36554621 264.36244637 208.541734 269.58341696 183.71079254 274.75008392 C182.50664703 275.00153168 181.30250153 275.25297943 180.06186676 275.51204681 C178.97663727 275.73626312 177.89140778 275.96047943 176.77329254 276.19149017 C175.36756989 276.48261688 175.36756989 276.48261688 173.93344879 276.77962494 C171.71079254 277.18758392 171.71079254 277.18758392 169.71079254 277.18758392 C169.55223785 275.89465424 169.39368317 274.60172455 169.23032379 273.26961517 C166.09778935 249.28665405 156.40620056 227.66859729 136.94907379 212.39461517 C127.69527239 206.08774208 116.2202394 198.63951503 104.71079254 199.18758392 C104.82874778 200.64650396 104.95570405 202.10469569 105.08579254 203.56258392 C105.15540192 204.3746933 105.22501129 205.18680267 105.29673004 206.02352142 C105.64371987 208.67504747 106.14070985 211.17498944 106.71787262 213.78084564 C107.73942125 218.85323013 108.01729 223.69668263 108.01157379 228.85945892 C108.01585892 229.7443399 108.02014404 230.62922089 108.02455902 231.54091644 C108.03025884 233.39969281 108.03083502 235.25849145 108.02646637 237.11727142 C108.02331554 239.91715036 108.04678914 242.7159607 108.07212067 245.51570892 C108.10942581 255.83229862 107.53502675 265.20416765 104.71079254 275.18758392 C104.47046295 276.05673431 104.23013336 276.9258847 103.98252106 277.82137299 C103.32558647 280.05216097 102.60077661 282.24187289 101.83579254 284.43758392 C101.60505035 285.16848236 101.37430817 285.8993808 101.13657379 286.65242767 C100.00204062 289.93468674 99.30610205 291.83740186 96.25376129 293.63289642 C93.08652229 294.32375347 89.92975186 294.80888283 86.71079254 295.18758392 C88.42647865 289.72858266 90.74255317 284.67506964 93.17563629 279.50399017 C97.75730837 267.7962554 98.19555931 255.61564968 98.10190582 243.21736908 C98.08580771 240.68996494 98.10185778 238.16415911 98.12094879 235.63680267 C98.15545642 209.54903646 90.0148656 187.05878955 71.83579254 168.00008392 C57.00863711 153.66332079 38.02163949 146.06335498 17.61923981 146.01058197 C16.51104385 146.00401077 15.4028479 145.99743958 14.26107025 145.99066925 C10.59977899 145.9709888 6.93852873 145.95928306 3.27719879 145.94930267 C1.39386998 145.94318938 1.39386998 145.94318938 -0.52750587 145.93695259 C-6.49317986 145.91825626 -12.45884097 145.90368853 -18.42453712 145.89534062 C-25.27120498 145.88559767 -32.11754702 145.85934809 -38.9641003 145.81883973 C-44.92491536 145.78480439 -50.88565259 145.77317619 -56.84656715 145.76913643 C-59.36570756 145.76429216 -61.88484504 145.75274057 -64.40392113 145.73409843 C-80.7967072 145.62036002 -95.59946479 145.99617917 -110.41420746 153.81258392 C-111.07034027 154.1510434 -111.72647308 154.48950287 -112.40248871 154.83821869 C-133.10432011 165.90739184 -146.94831043 184.14801348 -154.10170746 206.43758392 C-156.30859226 213.76711649 -156.44613375 221.54130061 -156.45717621 229.14070892 C-156.46050461 229.96278839 -156.46383301 230.78486786 -156.46726227 231.63185883 C-156.47228863 233.35957537 -156.47467193 235.08730148 -156.47451019 236.81502533 C-156.47669042 239.41724416 -156.49487516 242.01903386 -156.51381683 244.62117767 C-156.60370658 270.19305519 -150.15341209 292.14772538 -132.28920746 311.18758392 C-122.30989353 320.68875452 -110.27050647 327.64113819 -97.28920746 332.18758392 C-98.16420746 336.06258392 -98.16420746 336.06258392 -99.28920746 337.18758392 C-100.85690304 337.32950623 -102.42526717 337.46548785 -103.99526215 337.57918549 C-114.22347929 338.38510084 -124.07862487 340.59176048 -134.03920746 342.93758392 C-134.79618927 343.11580688 -135.55317108 343.29402985 -136.33309174 343.4776535 C-137.47708435 343.74701218 -137.47708435 343.74701218 -138.64418793 344.02181244 C-148.16434797 346.26049531 -157.68619959 348.32801951 -167.28920746 350.18758392 C-178.17807483 352.30591589 -188.98621215 354.67591697 -199.78920746 357.18758392 C-211.80224114 359.9805815 -223.83371734 362.54170242 -235.94155121 364.89852142 C-245.60604151 366.80073856 -255.19653277 368.95772619 -264.78920746 371.18758392 C-279.4096216 374.58446722 -294.06787542 377.64418967 -308.80287933 380.50643158 C-314.9694198 381.71123886 -321.12902886 382.95071037 -327.28920746 384.18758392 C-327.84523254 379.7447928 -328.39632388 375.30142275 -328.94326019 370.8575058 C-329.12914891 369.35246362 -329.31628027 367.84757429 -329.50478363 366.34285736 C-329.77881982 364.15349088 -330.0480597 361.96357404 -330.31655121 359.77352142 C-330.47889252 358.46431732 -330.64123383 357.15511322 -330.80849457 355.80623627 C-330.97474706 354.2673234 -331.13448032 352.72769828 -331.28920746 351.18758392 C-331.37556961 350.3404911 -331.46193176 349.49339828 -331.55091095 348.62063599 C-332.6481718 335.85697557 -332.42137089 323.06198184 -332.40273285 310.26229095 C-332.4018915 307.5410484 -332.40256585 304.81980671 -332.40317535 302.09856415 C-332.40369699 296.26346754 -332.40058809 290.4283822 -332.39493752 284.59328842 C-332.38677333 276.15696296 -332.38420228 267.72064289 -332.38294952 259.2843139 C-332.3807667 245.59337609 -332.37412755 231.90244427 -332.36464691 218.2115097 C-332.35545284 204.92049438 -332.34838178 191.62948069 -332.3441391 178.33846283 C-332.34387638 177.51773018 -332.34361365 176.69699753 -332.34334297 175.85139419 C-332.34203783 171.73357942 -332.34077414 167.61576463 -332.33953106 163.49794984 C-332.32918242 129.39449019 -332.31158514 95.29103779 -332.28920746 61.18758392 C-330.85037694 60.54418886 -329.41112784 59.90172982 -327.97170258 59.25966644 C-327.17026573 58.90179676 -326.36882889 58.54392708 -325.54310608 58.17521286 C-322.99853896 57.06021678 -320.4318854 56.05697703 -317.82045746 55.10945892 C-316.36518646 54.58122528 -316.36518646 54.58122528 -314.88051605 54.04232025 C-313.86038422 53.67775726 -312.84025238 53.31319427 -311.78920746 52.93758392 C-310.70333344 52.54917328 -309.61745941 52.16076263 -308.49868011 51.76058197 C-291.12032821 45.59766406 -273.65085576 40.12137081 -255.77358246 35.60555267 C-251.54964417 34.53193162 -247.37428932 33.3466645 -243.20034027 32.09456635 C-187.62588368 15.51113949 -128.5691088 6.39261647 -70.79946136 2.4302597 C-68.40015862 2.26438775 -66.00139902 2.09051636 -63.6031723 1.90975189 C-42.41033959 0.34001081 -21.24295146 -0.00100106 0 0 Z " fill="#FEFEFE" transform="translate(959.2892074584961,168.81241607666016)"/>
<path d="M0 0 C2.39728742 0.00568409 4.79456763 0.00847732 7.1918602 0.0110817 C34.24572039 0.05367544 61.14041233 0.84544087 88.0941124 3.31805801 C89.01019272 3.40055801 89.92627304 3.48305801 90.87011337 3.56805801 C121.50517436 6.34686953 151.81922284 10.91414419 182.0941124 16.31805801 C183.3274733 16.53785324 183.3274733 16.53785324 184.58575058 16.76208878 C239.97376916 26.69249728 294.53105686 42.30480222 347.0941124 62.31805801 C347.80199905 62.58482346 348.50988571 62.8515889 349.23922348 63.12643814 C351.31326027 63.91098247 353.38202529 64.70801732 355.44958115 65.50946426 C356.63962753 65.96780655 357.82967392 66.42614883 359.05578232 66.89838028 C363.20573179 68.83746876 366.07311101 71.18748546 368.0941124 75.31805801 C370.26101482 81.39686676 370.37347709 86.96369071 370.34135056 93.38025284 C370.34376497 94.48607688 370.34617939 95.59190093 370.34866697 96.73123479 C370.35429784 100.4330877 370.34564476 104.13476757 370.33703232 107.8366127 C370.33810548 110.49331481 370.33996469 113.15000574 370.34278488 115.80670547 C370.34782225 122.27653518 370.34218827 128.74631368 370.33293458 135.21613702 C370.32251757 142.77387306 370.32262178 150.3315982 370.32310716 157.88934007 C370.32360781 171.40237397 370.31445185 184.91538422 370.29992294 198.42840958 C370.28589158 211.48570563 370.27874982 224.54298087 370.27941513 237.60028458 C370.27945509 238.40161641 370.27949504 239.20294825 370.27953621 240.02856287 C370.27957656 240.82861448 370.27961692 241.62866609 370.2796585 242.45296168 C370.28035312 257.37142873 370.27442384 272.28988705 370.26550528 287.20835124 C370.26251663 292.45010794 370.26142898 297.691863 370.26097298 302.93362045 C370.26028209 309.35596592 370.25570007 315.77829673 370.24664017 322.200636 C370.24210133 325.464715 370.23949346 328.72877245 370.24023438 331.99285507 C370.25278317 421.06084093 352.93534671 505.01114417 280.0941124 634.31805801 C279.61103622 634.99255997 279.12796005 635.66706192 278.63024521 636.36200333 C275.49904913 640.71668923 272.31530549 645.02960947 269.0941124 649.31805801 C268.46641953 650.1562709 268.46641953 650.1562709 267.82604599 651.01141739 C261.54511347 659.37292412 254.92425241 667.40058505 248.0941124 675.31805801 C247.45602646 676.05797989 246.81794052 676.79790176 246.16051865 677.56024551 C244.4829017 679.48969872 242.78899852 681.40376399 241.0941124 683.31805801 C240.51403427 683.98224747 239.93395615 684.64643692 239.3362999 685.33075333 C232.75827148 692.76972958 225.79496353 699.80334734 218.77477646 706.82269669 C216.72467222 708.87499225 214.68272489 710.93517716 212.6409874 712.99579239 C206.16313216 719.50071674 199.69433236 725.77061842 192.45153427 731.42816544 C189.83580176 733.52513989 187.40734574 735.76820758 184.9691124 738.06805801 C178.36662856 744.14158749 171.22863375 749.4747201 164.05260849 754.84735489 C162.40851225 756.08196418 160.77536507 757.33113543 159.14489365 758.58368301 C133.60893423 778.11776 106.35413839 794.86447632 77.92516708 809.81805801 C75.19915694 811.26240144 72.4930052 812.73849337 69.7894249 814.22430801 C52.72457752 823.49641107 34.8756867 831.02441833 16.97431564 838.51323318 C15.12603261 839.3043945 13.30135634 840.14998977 11.47765732 840.99628067 C3.77221964 844.0063997 -3.87340551 843.04802765 -11.45666885 840.07977676 C-13.72170191 839.07987185 -15.97541426 838.05401171 -18.2183876 837.00555801 C-19.4402955 836.45478544 -20.66313488 835.90607528 -21.88684464 835.35931778 C-24.37361886 834.24298009 -26.85315685 833.11255903 -29.32727432 831.96844864 C-32.63669227 830.44220595 -35.95729915 828.9450023 -39.28479385 827.45868301 C-76.88129267 810.57905532 -112.47588788 790.4559045 -145.9058876 766.31805801 C-147.11003311 765.45398331 -147.11003311 765.45398331 -148.33850479 764.57245255 C-162.76964105 754.19627455 -176.69352945 743.25450829 -189.8043251 731.23993301 C-191.70624903 729.50062712 -193.63908492 727.8104267 -195.5933876 726.13055801 C-209.03797922 714.39021041 -222.55089564 702.06605102 -234.0855751 688.41571426 C-236.03377913 686.17068087 -238.06271028 684.0105084 -240.1012001 681.84759903 C-246.34709201 675.20054981 -252.06511305 668.27049808 -257.5987587 661.02362442 C-258.85272578 659.38742457 -260.12054727 657.76320379 -261.39416885 656.14227676 C-283.01575088 628.45147873 -301.05812513 598.62939478 -316.9058876 567.31805801 C-317.29985733 566.54623184 -317.69382706 565.77440567 -318.09973526 564.97919083 C-338.48823544 524.74180669 -351.74516955 480.44691948 -359.2808876 436.06805801 C-359.39635941 435.40518784 -359.51183121 434.74231766 -359.63080215 434.0593605 C-364.00137603 408.60773187 -365.37084851 382.90111361 -365.29806161 357.11936367 C-365.29109322 353.44213118 -365.30183638 349.76493564 -365.31000137 346.08771133 C-365.32314801 338.94085977 -365.32055076 331.79410413 -365.31176345 324.64724923 C-365.30492277 318.83858659 -365.30409729 313.0299504 -365.3073349 307.22128487 C-365.3077946 306.38728459 -365.3082543 305.55328432 -365.30872793 304.69401131 C-365.30968728 302.99882098 -365.31065992 301.30363065 -365.3116457 299.60844033 C-365.3201403 283.82523179 -365.31045324 268.04207607 -365.2942446 252.2588762 C-365.28078952 238.73748032 -365.2832235 225.21616156 -365.29700089 211.694767 C-365.3130638 195.92329485 -365.31937654 180.15186834 -365.31016409 164.38038915 C-365.30920857 162.6992823 -365.30826545 161.01817543 -365.3073349 159.33706856 C-365.30687207 158.51024916 -365.30640925 157.68342977 -365.3059324 156.83155524 C-365.3033489 151.02299384 -365.30769843 145.21446164 -365.31477356 139.40590477 C-365.32319415 132.33913318 -365.32089427 125.27246153 -365.30493133 118.20570136 C-365.29706496 114.60540928 -365.2939298 111.00528378 -365.30387878 107.40499306 C-365.3145091 103.49925788 -365.3017913 99.59379379 -365.28683853 95.68806839 C-365.2935307 94.55715446 -365.30022286 93.42624053 -365.30711782 92.26105648 C-365.24975402 84.535155 -364.23933967 78.0708887 -360.11780167 71.44232559 C-357.42693523 68.85808399 -354.97594527 67.71558111 -351.5152626 66.32977676 C-350.89939285 66.07967346 -350.2835231 65.82957016 -349.64899063 65.57188797 C-347.74086394 64.80353693 -345.82517547 64.05803413 -343.9058876 63.31805801 C-342.22076065 62.65991104 -342.22076065 62.65991104 -340.50159073 61.98846817 C-260.47784952 31.32834562 -175.68819681 12.36769124 -90.4683876 4.06805801 C-89.68995499 3.99083511 -88.91152237 3.91361221 -88.10950089 3.83404922 C-58.80764732 0.97217456 -29.42836472 -0.07115737 0 0 Z M-66.9058876 41.31805801 C-67.57531387 41.37133255 -68.24474014 41.42460709 -68.93445206 41.479496 C-78.94034168 42.28038633 -88.92468378 43.2510572 -98.9058876 44.31805801 C-99.938759 44.42730606 -99.938759 44.42730606 -100.99249649 44.53876114 C-120.59023663 46.61516351 -140.01170713 49.23584508 -159.41955948 52.69891739 C-162.6988662 53.28129287 -165.9812632 53.84099659 -169.2652626 54.39618301 C-183.63387499 56.88205203 -197.82758049 60.03320068 -212.0308876 63.31805801 C-212.94164047 63.52748032 -213.85239334 63.73690262 -214.79074478 63.95267105 C-225.37087846 66.39418525 -235.8274867 69.05647902 -246.21301651 72.22919083 C-249.83974307 73.29855486 -253.47431668 74.20891003 -257.1558876 75.06805801 C-296.91517199 82.81497217 -296.91517199 82.81497217 -331.9058876 100.31805801 C-332.00522803 101.76239636 -332.03511503 103.21157191 -332.03731537 104.65932083 C-332.04115651 105.602378 -332.04499766 106.54543516 -332.0489552 107.51706982 C-332.04808872 108.56554875 -332.04722224 109.61402769 -332.0463295 110.69427872 C-332.04930062 111.79890992 -332.05227174 112.90354113 -332.0553329 114.041646 C-332.06406438 117.77571791 -332.06553201 121.50975793 -332.06702042 125.24383926 C-332.07164622 127.90962248 -332.07665003 130.57540274 -332.08206558 133.24118423 C-332.09568272 140.51583436 -332.10168245 147.79047901 -332.10607624 155.06513977 C-332.10884012 159.62016033 -332.11307843 164.17517878 -332.11758041 168.73019791 C-332.12979097 181.36952455 -332.14007795 194.0088495 -332.14345551 206.64818192 C-332.14367507 207.45840595 -332.14389464 208.26862998 -332.14412086 209.10340625 C-332.14433913 209.91551364 -332.14455741 210.72762103 -332.1447823 211.56433773 C-332.14522576 213.20978355 -332.14567232 214.85522938 -332.14612198 216.5006752 C-332.14634341 217.31686313 -332.14656484 218.13305106 -332.14679298 218.97397196 C-332.15071746 232.11748855 -332.16809074 245.26094889 -332.1914815 258.40444386 C-332.21536602 271.93653556 -332.2276655 285.46859933 -332.22882342 299.00071239 C-332.22973212 306.58232507 -332.23535997 314.16386429 -332.25364304 321.7454567 C-332.33271133 355.93348116 -331.89055482 389.42365817 -326.9058876 423.31805801 C-326.2458876 423.31805801 -325.5858876 423.31805801 -324.9058876 423.31805801 C-323.83079133 428.59467151 -322.79491878 433.87598992 -321.8277626 439.17352676 C-307.7604666 515.75542717 -273.22838382 588.30994853 -222.4215126 647.36493301 C-220.00410606 650.20275809 -217.67002805 653.0931899 -215.3433876 656.00555801 C-211.58203234 660.63491833 -207.5136631 664.81289306 -203.2496376 668.97821426 C-201.15784533 671.06652022 -199.20420225 673.20064799 -197.2808876 675.44305801 C-192.02020175 681.56615138 -186.27837449 687.08893033 -180.15979385 692.34540176 C-177.94638943 694.28261014 -175.78406347 696.26876879 -173.62829971 698.26971817 C-167.58172046 703.87677353 -161.3462766 709.16404301 -154.9058876 714.31805801 C-153.77504804 715.24046177 -152.64487246 716.16367997 -151.5152626 717.08758926 C-137.27239911 728.68312327 -122.35754382 739.39213553 -106.9058876 749.31805801 C-106.14501846 749.80741837 -105.38414932 750.29677872 -104.60022354 750.80096817 C-85.72090519 762.8721532 -66.06915149 773.55389873 -45.9058876 783.31805801 C-45.21349991 783.65724258 -44.52111221 783.99642715 -43.80774307 784.34589005 C-38.21006491 787.08411573 -32.57011558 789.72062763 -26.9058876 792.31805801 C-25.85916885 792.80339005 -24.8124501 793.28872208 -23.7340126 793.78876114 C-20.34488529 795.34736562 -16.94060609 796.86759615 -13.5308876 798.38055801 C-12.47401749 798.87016006 -11.41714737 799.35976212 -10.32825089 799.86420059 C-1.60007951 803.66381828 6.24350859 805.16908465 15.49792099 802.24115372 C19.10035352 800.77236054 22.60042491 799.14876454 26.0941124 797.44305801 C27.37194475 796.84072218 28.65077066 796.24049001 29.93053818 795.64227676 C32.48161441 794.44508183 35.02543316 793.23426392 37.56383896 792.01044083 C40.64091715 790.53531593 43.73066882 789.09891193 46.8362999 787.68524551 C85.05137513 770.16985379 121.78634494 746.22354304 154.0941124 719.31805801 C154.59072372 718.90491348 155.08733505 718.49176895 155.59899521 718.06610489 C162.04011439 712.69528565 168.38509973 707.23579308 174.58239365 701.58368301 C175.93051891 700.36764467 177.28448748 699.15726606 178.67150497 697.98578262 C185.20956654 692.4245629 191.22135725 686.3417648 197.27599716 680.26654434 C199.15240715 678.38477527 201.03410209 676.50841063 202.91637802 674.63251114 C208.85407607 668.69840163 214.69760864 662.75640925 220.0941124 656.31805801 C220.97057628 655.30795288 221.84812789 654.29879022 222.7269249 653.29071426 C230.20296021 644.56086111 237.21526197 635.52381816 244.0941124 626.31805801 C244.62262802 625.61584122 245.15114365 624.91362442 245.6956749 624.19012833 C262.51836532 601.76332736 276.86315933 577.58246821 289.09215927 552.37079239 C290.11389433 550.27753012 291.15797295 548.19640511 292.2034874 546.11493301 C298.72076369 532.95364751 303.85704307 519.30290763 308.91051865 505.53143692 C309.87040772 502.92540144 310.84908608 500.32874329 311.8441124 497.73602676 C322.23915596 470.20588348 327.2185214 441.07729817 331.3441124 412.06805801 C331.50750107 410.92715714 331.67088974 409.78625626 331.83922958 408.61078262 C334.2865973 390.5986259 334.23346382 372.66653413 334.20763779 354.52313614 C334.20679595 351.73263395 334.20747096 348.9421326 334.20808029 346.1516304 C334.20860145 340.17305932 334.20549755 334.19449925 334.19984245 328.21593094 C334.19167179 319.57221386 334.18910656 310.92850204 334.18785446 302.28478152 C334.18567264 288.25664541 334.17903625 274.22851516 334.16955185 260.20038223 C334.16035515 246.58352055 334.15328539 232.96666046 334.14904404 219.3497963 C334.14878131 218.50868012 334.14851859 217.66756395 334.14824791 216.80095941 C334.14694275 212.5807974 334.14567907 208.36063539 334.144436 204.14047337 C334.13409049 169.19966408 334.11649598 134.25886159 334.0941124 99.31805801 C327.73046983 97.14842476 321.36649782 94.97975989 315.00231552 92.81171036 C312.84566732 92.07689759 310.68908958 91.341878 308.53258896 90.60663223 C301.38849727 88.17099539 294.24237872 85.74141524 287.0941124 83.31805801 C286.20023819 83.01452408 285.30636398 82.71099014 284.38540268 82.39825821 C281.93912763 81.56879599 279.49151248 80.74343665 277.04333115 79.91962051 C276.34515274 79.68246323 275.64697433 79.44530594 274.92763901 79.20096207 C269.13351904 77.2601526 263.26431305 75.77187622 257.31676865 74.37274551 C253.44867796 73.43297259 249.63812482 72.33312906 245.82018661 71.20868301 C232.70097679 67.34704964 219.45781773 64.21152609 206.0941124 61.31805801 C205.00179306 61.08119278 203.90947372 60.84432755 202.7840538 60.60028458 C161.37837459 51.73935983 119.61204867 45.37136137 77.38879013 42.31879044 C76.57019516 42.25927704 75.75160019 42.19976364 74.90819931 42.13844681 C73.37513963 42.02770858 71.84194405 41.91882809 70.30858994 41.81224442 C66.91545427 41.56789514 63.57372799 41.25047097 60.19738388 40.8119545 C55.47849015 40.20009998 50.76021742 39.96779872 46.0081749 39.76727676 C45.01943375 39.72543762 44.0306926 39.68359848 43.01198959 39.64049149 C29.50240689 39.12176231 15.98672925 39.12012708 2.4691124 39.13055801 C1.77976986 39.1306776 1.09042732 39.1307972 0.38019562 39.13092041 C-22.10032866 39.1358414 -44.48886217 39.51227262 -66.9058876 41.31805801 Z " fill="#0D2B4D" transform="translate(958.9058876037598,129.68194198608398)"/>
<path d="M0 0 C2.55342186 -0.00202425 5.10684316 -0.00493861 7.66026306 -0.00869751 C12.99337847 -0.01310347 18.32633745 -0.00703674 23.65942383 0.00732422 C29.79379252 0.02365384 35.92786201 0.01834882 42.06222349 0.001845 C48.0054755 -0.01349436 53.94863591 -0.0117632 59.89190483 -0.0030098 C62.40233846 -0.0010191 64.91277982 -0.00342701 67.42320442 -0.01044846 C70.93997104 -0.01812861 74.45617529 -0.00636709 77.97290039 0.01025391 C78.99401917 0.00418121 80.01513794 -0.00189148 81.06719971 -0.00814819 C93.40780456 0.09906097 103.88887433 3.80966559 114.77734375 9.3984375 C116.07478516 10.05972656 116.07478516 10.05972656 117.3984375 10.734375 C124.82195778 14.84403583 130.77875778 20.48493785 136.77734375 26.3984375 C137.44894531 27.05714844 138.12054687 27.71585937 138.8125 28.39453125 C155.35706506 45.91895665 160.34430158 70.08953996 160.16845703 93.36865234 C160.15235892 95.89605648 160.16840899 98.42186232 160.1875 100.94921875 C160.20590903 113.96472238 159.19014896 126.70441897 153.52734375 138.6484375 C153.07174072 139.64254639 153.07174072 139.64254639 152.60693359 140.65673828 C142.74552633 161.64592228 126.39948236 177.47657972 104.96484375 186.1484375 C103.89943359 186.58953857 103.89943359 186.58953857 102.8125 187.03955078 C93.04451044 190.81851986 83.40067268 191.54071353 73.00624084 191.1789856 C52.45033377 190.53658062 38.03576299 195.3966699 20.0894165 205.05967712 C13.21614034 208.75592023 6.16359846 211.98391301 -0.9614563 215.16079712 C-3.69454105 216.38010904 -6.42167194 217.61241401 -9.14872742 218.84513855 C-10.49108502 219.45186881 -11.83378573 220.05784054 -13.17683411 220.66304016 C-17.28220935 222.51421716 -21.37718088 224.38658938 -25.46546936 226.27519226 C-28.14137449 227.50988266 -30.82124419 228.73580368 -33.50180054 229.96035767 C-34.75852135 230.53695845 -36.01348279 231.11741186 -37.26651001 231.70199585 C-38.9905889 232.50570334 -40.72172662 233.29421568 -42.453125 234.08203125 C-43.42660889 234.53118896 -44.40009277 234.98034668 -45.40307617 235.44311523 C-48.54988015 236.50930659 -50.92226683 236.72051913 -54.22265625 236.3984375 C-56.22265625 234.3984375 -56.22265625 234.3984375 -56.58935547 231.29956055 C-56.13724902 226.48983426 -54.57442545 223.21147062 -52.35546875 218.98046875 C-51.96068329 218.20080246 -51.56589783 217.42113617 -51.15914917 216.61784363 C-49.90171733 214.14195001 -48.62514799 211.67653029 -47.34765625 209.2109375 C-46.49610386 207.54297667 -45.64582999 205.87436246 -44.796875 204.20507812 C-42.92518705 200.53026179 -41.04140482 196.86195404 -39.14651489 193.1990509 C-38.15795419 191.27233228 -37.18806343 189.33684653 -36.22265625 187.3984375 C-36.89296875 187.30433594 -37.56328125 187.21023438 -38.25390625 187.11328125 C-56.90340344 182.62267864 -73.43576267 167.70491555 -83.47265625 152.0234375 C-91.97311481 137.60814694 -96.36663179 122.37529366 -96.390625 105.640625 C-96.3956176 104.40326096 -96.3956176 104.40326096 -96.40071106 103.14089966 C-96.40575075 101.40123039 -96.4081203 99.66155156 -96.40795898 97.921875 C-96.41013262 95.30191481 -96.42828452 92.68238519 -96.44726562 90.0625 C-96.53618839 64.28316231 -89.55303715 42.13044263 -71.22265625 23.3984375 C-50.26320414 3.4238642 -27.79213496 -0.07780484 0 0 Z " fill="#0E2B4D" transform="translate(898.22265625,313.6015625)"/>
<path d="M0 0 C5.84007491 0.56057665 10.49037511 2.03928586 15.73242188 4.63134766 C16.47363281 4.99035156 17.21484375 5.34935547 17.97851562 5.71923828 C23.64403242 8.5420397 28.50892016 11.77857978 33.23242188 16.00634766 C33.97621094 16.60962891 34.72 17.21291016 35.48632812 17.83447266 C51.39477387 31.07805186 61.35915903 51.5560132 63.23242188 72.00634766 C63.54015451 77.9300818 63.52102997 83.85995881 63.49316406 89.79003906 C63.48244029 92.50169225 63.4931172 95.21268318 63.50585938 97.92431641 C63.52970699 123.5250959 57.41790498 144.26383174 39.23242188 163.00634766 C38.69230469 163.61994141 38.1521875 164.23353516 37.59570312 164.86572266 C29.51514079 173.74009338 17.57292409 180.37227368 6.23242188 184.00634766 C5.24242187 184.00634766 4.25242187 184.00634766 3.23242188 184.00634766 C3.72645508 184.95888428 4.22048828 185.9114209 4.72949219 186.89282227 C6.58091627 190.46421898 8.42888748 194.03739315 10.27587891 197.61108398 C11.07215446 199.15062524 11.8693363 200.68969814 12.66748047 202.22827148 C24.25842776 224.57602405 24.25842776 224.57602405 24.16992188 229.44384766 C23.23242188 232.00634766 23.23242188 232.00634766 20.23242188 234.00634766 C15.60056753 233.67918311 11.96222812 232.1498814 7.80664062 230.15478516 C7.19504089 229.86422745 6.58344116 229.57366974 5.95330811 229.27430725 C4.63165385 228.6456714 3.3115593 228.01374792 1.9928894 227.37887573 C-1.59151856 225.65403078 -5.18825833 223.9551854 -8.78320312 222.25244141 C-9.52691666 221.89938431 -10.27063019 221.54632721 -11.03688049 221.18257141 C-16.05003805 218.80632167 -21.07929865 216.46853828 -26.12695312 214.16650391 C-26.80499496 213.85721954 -27.4830368 213.54793518 -28.18162537 213.22927856 C-31.60948793 211.66978411 -35.04302987 210.12418178 -38.48461914 208.59521484 C-44.58865582 205.87472257 -50.63606663 203.12787343 -56.54049683 199.99279785 C-74.82315861 190.2875035 -89.69603362 187.49057942 -110.39648438 188.02587891 C-121.09065337 188.29982892 -131.28686312 186.2710371 -141.01757812 181.75634766 C-141.68015625 181.45913818 -142.34273437 181.16192871 -143.02539062 180.85571289 C-148.72846822 178.21013397 -153.83420236 174.90798378 -158.76757812 171.00634766 C-158.60351562 168.69775391 -158.60351562 168.69775391 -157.76757812 166.00634766 C-154.26266181 163.47364311 -150.18715703 161.93317541 -146.24609375 160.17675781 C-143.46565483 158.86377277 -140.79293361 157.40045499 -138.09570312 155.92431641 C-122.90068007 147.98143661 -110.58512411 145.68546648 -93.60498047 146.10253906 C-67.36598056 146.69832271 -44.27147283 135.71198822 -25.26757812 117.94384766 C-11.72866997 103.99757412 -4.84447204 86.71824536 -0.76757812 68.00634766 C-0.50279663 66.94371704 -0.50279663 66.94371704 -0.23266602 65.85961914 C0.42008265 61.85506605 0.41519014 57.90943053 0.43554688 53.85791016 C0.44124695 52.96832611 0.44694702 52.07874207 0.45281982 51.16220093 C0.46225169 49.27774231 0.46879659 47.39326733 0.47265625 45.50878906 C0.48227157 42.67563489 0.51327398 39.84323524 0.54492188 37.01025391 C0.59963017 27.36102451 0.15806372 18.41145977 -2.12011719 9.015625 C-2.72192988 6.21851218 -2.97237812 3.85358284 -2.76757812 1.00634766 C-1.76757812 0.00634766 -1.76757812 0.00634766 0 0 Z " fill="#0E2B4D" transform="translate(1065.767578125,366.99365234375)"/>
<path d="M0 0 C6.0959605 0.8708515 10.84602055 4.05176566 16.10107422 7.09960938 C17.85560977 8.11379178 19.62036513 9.10814273 21.38671875 10.1015625 C29.43711411 14.73859023 37.91187871 19.73563612 41 29 C42.17598108 37.45236402 40.06927476 44.49509673 35.3046875 51.48828125 C30.74830541 57.12380647 26.04169015 60.21143572 19 62 C18.01 62 17.02 62 16 62 C15.96261719 62.65742187 15.92523437 63.31484375 15.88671875 63.9921875 C15.23350804 73.44453071 13.64633683 82.68111226 12 92 C8.30123909 90.62712658 5.0485524 88.93644547 1.6875 86.875 C0.80449219 86.33617187 -0.07851563 85.79734375 -0.98828125 85.2421875 C-1.65214844 84.83226562 -2.31601562 84.42234375 -3 84 C-2.54625638 80.99924219 -2.08714004 77.99946658 -1.625 75 C-1.49867188 74.16082031 -1.37234375 73.32164062 -1.2421875 72.45703125 C-0.42882079 67.21081598 0.63417996 62.13073268 2 57 C1.34 56.7525 0.68 56.505 0 56.25 C-3.75034515 54.68735619 -7.3660551 52.81697245 -11 51 C-14.96 57.93 -18.92 64.86 -23 72 C-26.54997152 70.58001139 -29.18729934 69.3878411 -32.3125 67.375 C-33.35857422 66.70597656 -33.35857422 66.70597656 -34.42578125 66.0234375 C-34.94527344 65.68570313 -35.46476563 65.34796875 -36 65 C-35.32986605 61.6085822 -34.02453945 58.9887225 -32.33203125 55.984375 C-31.77523682 54.99203857 -31.21844238 53.99970215 -30.64477539 52.97729492 C-30.04012451 51.9122876 -29.43547363 50.84728027 -28.8125 49.75 C-28.19044678 48.64696533 -27.56839355 47.54393066 -26.92749023 46.4074707 C-20.94103485 35.82530701 -14.82270254 25.32044962 -8.66455078 14.83740234 C-5.76649789 9.89736557 -2.88372912 4.94840771 0 0 Z " fill="#0F2C4E" transform="translate(822,663)"/>
<path d="M0 0 C3.35861695 1.43409972 5.35874939 3.19369321 7.75 5.9375 C8.36359375 6.62714844 8.9771875 7.31679688 9.609375 8.02734375 C11 10 11 10 11 13 C12.19625 13.495 13.3925 13.99 14.625 14.5 C19.47998765 16.94471009 22.45078078 20.2147762 25 25 C25.42578125 27.0859375 25.42578125 27.0859375 25.6875 29.125 C26.24933196 32.12728956 26.73845975 32.82019108 29.3125 34.58984375 C31.25291983 35.58378162 33.20527331 36.55471278 35.16796875 37.50390625 C41.11023109 40.64306001 45.8210676 45.59137528 48 52 C48.93154527 57.0094322 48.47900824 60.87275002 45.8125 65.25 C37.00187155 77.17887937 24.92903261 87.3387609 13 96 C11.49405319 94.38050958 9.99539332 92.75424026 8.5 91.125 C7.6646875 90.22007812 6.829375 89.31515625 5.96875 88.3828125 C4 86 4 86 4 84 C5.328125 82.66015625 5.328125 82.66015625 7.25 81.0625 C11.50507795 77.45213083 15.6115438 73.70654074 19.69824219 69.90844727 C21.99082248 67.7906667 24.30244494 65.7595068 26.74609375 63.81640625 C29.35030205 61.71769419 30.68107981 60.07748043 32 57 C32.31708771 53.97919865 32.31708771 53.97919865 31 51 C28.8470782 48.74431344 26.50813669 46.84672206 24 45 C20.13209916 46.60398732 17.37383947 49.22658313 14.375 52.0625 C13.30625595 53.05627612 12.23724133 54.04976133 11.16796875 55.04296875 C10.37011963 55.78812744 10.37011963 55.78812744 9.55615234 56.54833984 C3.61279978 62.09260943 -2.25121989 67.45190906 -9 72 C-10.50594681 70.38050958 -12.00460668 68.75424026 -13.5 67.125 C-14.3353125 66.22007812 -15.170625 65.31515625 -16.03125 64.3828125 C-18 62 -18 62 -18 60 C-16.671875 58.66015625 -16.671875 58.66015625 -14.75 57.0625 C-10.49492205 53.45213083 -6.3884562 49.70654074 -2.30175781 45.90844727 C-0.00853131 43.79006976 2.30257244 41.76017696 4.75 39.8203125 C8.02822889 37.16813426 9.67195347 34.64023267 10.5 30.5 C9.75836168 26.79180838 7.87422217 25.36324934 5 23 C3.3495861 22.29405654 1.68457071 21.62003527 0 21 C-0.9178125 21.85722656 -1.835625 22.71445312 -2.78125 23.59765625 C-9.1058862 29.49461425 -15.4271086 35.37864076 -22 41 C-22.67160156 41.5775 -23.34320312 42.155 -24.03515625 42.75 C-25.68779307 44.16936204 -27.34353732 45.58510479 -29 47 C-32.44428265 45.55218207 -34.36130962 43.72305391 -36.75 40.875 C-37.36359375 40.15054688 -37.9771875 39.42609375 -38.609375 38.6796875 C-39.06828125 38.12539063 -39.5271875 37.57109375 -40 37 C-35.99063077 32.93696808 -31.86351328 29.01608273 -27.6875 25.125 C-26.6823938 24.18756958 -26.6823938 24.18756958 -25.65698242 23.23120117 C-21.84408343 19.68525609 -17.99827297 16.19294326 -14.05078125 12.796875 C-9.28635201 8.62232747 -4.65768887 4.29283658 0 0 Z " fill="#102C4E" transform="translate(743,611)"/>
<path d="M0 0 C2.04582432 2.72776576 3.45060785 4.66094357 4.83764648 7.6159668 C5.16486191 8.30736252 5.49207733 8.99875824 5.82920837 9.71110535 C6.17303055 10.44968277 6.51685272 11.18826019 6.87109375 11.94921875 C7.23469498 12.72127151 7.5982962 13.49332428 7.97291565 14.28877258 C9.1320484 16.75303472 10.28473632 19.22025313 11.4375 21.6875 C12.20858762 23.32766054 12.9800681 24.96763645 13.75195312 26.60742188 C15.8467246 31.06612949 17.93787911 35.52608463 20 40 C20.37577179 40.80273346 20.75154358 41.60546692 21.13870239 42.43252563 C21.50551117 43.2305661 21.87231995 44.02860657 22.25024414 44.85083008 C22.58536514 45.57361649 22.92048615 46.29640289 23.26576233 47.04109192 C24 49 24 49 24 52 C22.43945312 53.44213867 22.43945312 53.44213867 20.28125 54.91796875 C19.51425781 55.44970703 18.74726562 55.98144531 17.95703125 56.52929688 C17.14621094 57.07650391 16.33539062 57.62371094 15.5 58.1875 C14.68917969 58.74630859 13.87835937 59.30511719 13.04296875 59.88085938 C11.03465764 61.26304996 9.02035521 62.63550165 7 64 C4.05421748 62.66298729 1.88683239 61.17131235 -0.4609375 58.953125 C-1.09773438 58.355 -1.73453125 57.756875 -2.390625 57.140625 C-3.04546875 56.51671875 -3.7003125 55.8928125 -4.375 55.25 C-5.34566406 54.33734375 -5.34566406 54.33734375 -6.3359375 53.40625 C-10.29401313 49.67161412 -14.16994176 45.86563154 -18 42 C-17.74831055 42.55349121 -17.49662109 43.10698242 -17.23730469 43.67724609 C-16.07256668 46.24212516 -14.91127296 48.80855035 -13.75 51.375 C-13.35425781 52.24511719 -12.95851563 53.11523438 -12.55078125 54.01171875 C-9.86897092 59.94687275 -7.36804195 65.93291322 -5 72 C-9.67323014 75.85924538 -14.36258671 79.71088453 -19.375 83.125 C-19.98085937 83.54007813 -20.58671875 83.95515625 -21.2109375 84.3828125 C-23 85 -23 85 -24.89990234 84.24047852 C-27.09167293 82.94585094 -28.62070661 81.59299812 -30.390625 79.76953125 C-31.01348389 79.1350708 -31.63634277 78.50061035 -32.27807617 77.84692383 C-33.25417847 76.83988403 -33.25417847 76.83988403 -34.25 75.8125 C-38.6868846 71.29930925 -43.11068662 66.90028343 -47.95703125 62.82421875 C-51.4470729 59.70787181 -54.69634734 56.34281692 -57.96557617 52.99731445 C-60.70665434 50.13858322 -60.70665434 50.13858322 -64 48 C-62.68818459 44.06455377 -60.04041273 42.25061837 -56.8515625 39.85546875 C-54.43035907 38.73681147 -53.48673821 39.13373515 -51 40 C-49.47618103 41.1832428 -49.47618103 41.1832428 -48.02319336 42.68383789 C-47.4725975 43.24434341 -46.92200165 43.80484894 -46.35472107 44.38233948 C-45.77231155 44.98964401 -45.18990204 45.59694855 -44.58984375 46.22265625 C-43.9811293 46.84273056 -43.37241486 47.46280487 -42.74525452 48.10166931 C-40.80198291 50.08158026 -38.86867273 52.07079045 -36.9375 54.0625 C-34.39265181 56.68690429 -31.83822646 59.30140697 -29.27734375 61.91015625 C-28.40069313 62.8241494 -28.40069313 62.8241494 -27.5063324 63.75660706 C-26.06053095 65.22857999 -24.53581449 66.62220466 -23 68 C-22.01 68 -21.02 68 -20 68 C-20.47945068 66.96593018 -20.95890137 65.93186035 -21.45288086 64.86645508 C-23.23435459 61.02048031 -25.00873007 57.17126578 -26.78100586 53.32104492 C-27.54828506 51.65674394 -28.31747308 49.99332156 -29.08862305 48.33081055 C-30.19826101 45.93768418 -31.30094162 43.54145711 -32.40234375 41.14453125 C-32.74716293 40.4047554 -33.09198212 39.66497955 -33.44725037 38.90278625 C-33.76750687 38.20243759 -34.08776337 37.50208893 -34.41772461 36.78051758 C-34.69974228 36.1698494 -34.98175995 35.55918121 -35.27232361 34.93000793 C-36 33 -36 33 -37 28 C-33.37 25.36 -29.74 22.72 -26 20 C-22.60854693 21.69572653 -21.2059289 22.58254628 -18.75 25.1875 C-15.73641254 28.29028455 -12.6002332 31.14406443 -9.3203125 33.9609375 C-7.4940838 35.56580515 -5.70611434 37.19276539 -3.9296875 38.8515625 C-3.39432373 39.35010742 -2.85895996 39.84865234 -2.30737305 40.36230469 C-1.24273218 41.35650436 -0.18157759 42.35445294 0.87573242 43.35644531 C3.25238585 45.5704425 4.87735721 46.95911907 8 48 C7.70867187 47.3922876 7.41734375 46.7845752 7.1171875 46.15844727 C1.03190846 33.4604505 -5.02667692 20.75107648 -11 8 C-5.555 4.04 -5.555 4.04 0 0 Z " fill="#102C4E" transform="translate(1152,655)"/>
<path d="M0 0 C8.76717284 3.64912309 16.18761716 10.76792521 23.44116211 16.76660156 C26.68843007 19.46052784 26.68843007 19.46052784 30.75 19.75 C35.46854275 20.11296483 37.74087067 22.76015546 41 26 C39.63981009 29.11963955 38.16739866 31.00834822 35.5625 33.1875 C34.66724609 33.95126953 34.66724609 33.95126953 33.75390625 34.73046875 C32 36 32 36 29 37 C27.77611306 39.51839467 27.77611306 39.51839467 26.75 42.5625 C23.9787562 49.60817741 20.32619782 54.78253479 14 59 C7.02577957 60.33086041 1.92490772 58.60088115 -3.859375 54.69921875 C-7.38324759 51.90198412 -9.51123951 49.46278342 -10.40234375 44.97265625 C-10.98552002 36.87930754 -6.88240932 30.36160381 -2.125 24.125 C0.312503 21.31444947 0.312503 21.31444947 -0.3671875 18.8046875 C-0.57601563 18.20914063 -0.78484375 17.61359375 -1 17 C-3.63776466 15.79172045 -3.63776466 15.79172045 -7 16 C-12.81899177 20.6365939 -16.88130692 27.89081391 -21 34 C-24.86142204 33.21616433 -27.01328244 31.57189568 -30 29 C-28.61985107 24.20233943 -26.52561123 20.21590484 -23.8125 16.0625 C-23.41393799 15.44858398 -23.01537598 14.83466797 -22.60473633 14.20214844 C-17.12545491 5.95640465 -10.94941641 -2.05658604 0 0 Z " fill="#102C4E" transform="translate(1192,616)"/>
<path d="M0 0 C4.93734336 4.60070631 7.00499134 9.57163877 9 16 C9 20.29 9 24.58 9 29 C-1.23 30.65 -11.46 32.3 -22 34 C-20.52360997 39.06008639 -20.52360997 39.06008639 -17 41 C-10.04111459 41.57040044 -3.9832127 40.24580318 2.765625 38.55859375 C5.93723006 38.0108407 7.93471518 38.12996615 11 39 C11.495 43.455 11.495 43.455 12 48 C0.54129836 52.8966686 -11.836104 57.74965302 -24.42578125 54.34375 C-29.36812401 52.18438367 -32.77697825 48.93653228 -35 44 C-37.91060574 35.14412417 -39.96647845 26.37330691 -39 17 C-38.89365234 15.92685547 -38.89365234 15.92685547 -38.78515625 14.83203125 C-37.76930895 8.93098572 -34.52939496 4.79830523 -30 1 C-21.30454065 -4.34643097 -8.9409535 -5.48128385 0 0 Z " fill="#0F2C4E" transform="translate(1029,725)"/>
<path d="M0 0 C4.70154607 3.02003226 8.42327729 7.09405062 10.1953125 12.41015625 C10.93158299 21.58336231 10.025109 29.0324764 6.1953125 37.41015625 C-1.07286656 36.77775342 -7.81121994 34.87039458 -14.8046875 32.84765625 C-15.96097656 32.51830078 -17.11726562 32.18894531 -18.30859375 31.84960938 C-21.14216744 31.0416896 -23.97408607 30.22841682 -26.8046875 29.41015625 C-26.5571875 30.66828125 -26.3096875 31.92640625 -26.0546875 33.22265625 C-25.91546875 33.93035156 -25.77625 34.63804687 -25.6328125 35.3671875 C-24.53209672 38.08263257 -23.31353502 38.92462591 -20.8046875 40.41015625 C-18.21484456 41.35278908 -18.21484456 41.35278908 -15.3828125 42.015625 C-14.35800781 42.27666016 -13.33320312 42.53769531 -12.27734375 42.80664062 C-11.21386719 43.06767578 -10.15039062 43.32871094 -9.0546875 43.59765625 C-7.97574219 43.87029297 -6.89679687 44.14292969 -5.78515625 44.42382812 C-3.12696674 45.09425645 -0.46692506 45.75602277 2.1953125 46.41015625 C1.88732924 47.89026996 1.5737945 49.3692295 1.2578125 50.84765625 C1.08378906 51.67136719 0.90976562 52.49507812 0.73046875 53.34375 C0.1953125 55.41015625 0.1953125 55.41015625 -0.8046875 56.41015625 C-11.00825802 57.12619629 -25.41230921 55.8517638 -33.8046875 49.41015625 C-39.054514 44.34575408 -40.96043456 40.54729383 -41.1796875 33.16015625 C-41.08693629 21.96044732 -37.79120721 10.58632946 -29.8046875 2.41015625 C-21.75879095 -4.88728481 -9.59857287 -4.41914493 0 0 Z " fill="#0F2C4E" transform="translate(903.8046875,718.58984375)"/>
<path d="M0 0 C3.91043487 0.1212338 7.82073966 0.24444569 11.73095703 0.37231445 C13.69947721 0.43586885 15.66809757 0.49629596 17.63671875 0.55664062 C25.45158655 0.81449159 33.21575026 1.25851291 41 2 C41.39197914 8.16227673 41.68207911 14.25745582 37.73046875 19.3203125 C34.9947352 22.39311627 31.99611326 25.18398098 29 28 C27.68713994 29.43928362 26.3918907 30.89509228 25.125 32.375 C24.59003906 32.99117187 24.05507813 33.60734375 23.50390625 34.2421875 C21.30964145 36.8069126 19.147976 39.39639273 17 42 C18.58403524 43.58403524 20.2771638 43.21974935 22.47265625 43.31640625 C23.82133789 43.37924805 23.82133789 43.37924805 25.19726562 43.44335938 C26.14279297 43.48267578 27.08832031 43.52199219 28.0625 43.5625 C29.01189453 43.60568359 29.96128906 43.64886719 30.93945312 43.69335938 C33.29278176 43.79979132 35.64637099 43.90043154 38 44 C38 48.29 38 52.58 38 57 C24.3132995 57.1456032 10.67293655 56.58414091 -3 56 C-3.05449838 54.27119018 -3.09301688 52.54187288 -3.125 50.8125 C-3.14820313 49.84957031 -3.17140625 48.88664063 -3.1953125 47.89453125 C-2.86916583 43.06103762 -1.3380247 39.93872758 2.1875 36.6875 C9.45733116 29.71745569 15.66613182 21.81320701 22 14 C20.99839844 14.01160156 19.99679687 14.02320313 18.96484375 14.03515625 C17.62239772 14.04454398 16.27994964 14.05364312 14.9375 14.0625 C12.97103516 14.07990234 12.97103516 14.07990234 10.96484375 14.09765625 C7.1836481 14.00452335 3.72079293 13.61448726 0 13 C0 8.71 0 4.42 0 0 Z " fill="#102D4E" transform="translate(932,726)"/>
<path d="M0 0 C0.67528223 1.57967807 1.33989694 3.16391903 2 4.75 C2.37125 5.63171875 2.7425 6.5134375 3.125 7.421875 C4 10 4 10 4 14 C1.85242436 15.78177979 -0.16582085 17.26020167 -2.5 18.75 C-3.12003906 19.16121094 -3.74007813 19.57242188 -4.37890625 19.99609375 C-5.91117171 21.00974629 -7.45458117 22.00651646 -9 23 C-6.84455135 30.6666728 -4.16741945 38.0690135 -1.3125 45.5 C-0.4930938 47.63426732 0.32346766 49.76962973 1.13671875 51.90625 C1.49467529 52.83759766 1.85263184 53.76894531 2.22143555 54.72851562 C3 57 3 57 3 59 C1.23141309 59.67260351 -0.53996016 60.33788395 -2.3125 61 C-3.29863281 61.37125 -4.28476563 61.7425 -5.30078125 62.125 C-8 63 -8 63 -11 63 C-13.7373365 56.08170369 -16.46007284 49.15779428 -19.17260742 42.22973633 C-20.09761598 39.87228874 -21.02599171 37.51615953 -21.95776367 35.16137695 C-23.29447133 31.78154827 -24.61910181 28.39720395 -25.94140625 25.01171875 C-26.36216934 23.95538742 -26.78293243 22.89905609 -27.21644592 21.81071472 C-27.59691574 20.82992447 -27.97738556 19.84913422 -28.36938477 18.83862305 C-28.70913834 17.97480515 -29.04889191 17.11098724 -29.39894104 16.22099304 C-30 14 -30 14 -29 11 C-26.8203125 9.796875 -26.8203125 9.796875 -24.125 8.75 C-23.24070312 8.39421875 -22.35640625 8.0384375 -21.4453125 7.671875 C-19 7 -19 7 -16 8 C-15.01 9.485 -15.01 9.485 -14 11 C-13.30132813 10.28972656 -12.60265625 9.57945312 -11.8828125 8.84765625 C-10.97273438 7.92855469 -10.06265625 7.00945313 -9.125 6.0625 C-8.22007813 5.14597656 -7.31515625 4.22945312 -6.3828125 3.28515625 C-2.95726496 0 -2.95726496 0 0 0 Z " fill="#102C4E" transform="translate(1079,703)"/>
<path d="M0 0 C5.22143149 2.66190625 9.3597777 6.71955539 12 12 C12.78755975 18.41298655 11.5353008 21.88498958 7.703125 27.078125 C4.87619647 30.26814527 2.27362705 31.68497939 -1.9453125 32.26953125 C-6.6751366 32.5123169 -9.99244635 31.67170243 -14 29 C-17.97531446 25.06766191 -19.87833433 21.85540151 -20.25 16.1875 C-20.16357285 11.46857777 -18.96410765 7.98557331 -15.5703125 4.5546875 C-10.74095169 0.35002012 -6.32915827 -0.85431604 0 0 Z " fill="#F8F9FA" transform="translate(934,395)"/>
<path d="M0 0 C5.07057843 2.8410291 7.66834182 5.74050046 9.85546875 11.1171875 C10.7983708 16.09688893 10.06601492 20.17863774 7.24609375 24.5078125 C4.15178166 28.08887031 0.45942779 30.49647633 -4.16015625 31.59765625 C-8.97843471 31.94859385 -12.47096594 30.40269783 -16.37890625 27.6640625 C-20.42900416 24.11574663 -21.93761021 20.56563475 -22.70703125 15.1796875 C-22.42416522 10.32382059 -20.30661487 6.72643445 -17.14453125 3.1171875 C-12.12281956 -1.22196143 -6.14388709 -2.52917756 0 0 Z " fill="#F8F9FA" transform="translate(870.14453125,395.8828125)"/>
<path d="M0 0 C3.81710835 2.51766721 6.77349892 4.84664865 8.9375 8.9375 C9.93583991 14.08046318 9.71571449 19.10306425 7.4375 23.875 C3.47705592 28.726544 -0.50388727 30.62870191 -6.6875 31.375 C-11.97235436 30.68992629 -15.403234 28.93649694 -18.875 24.9375 C-22.38434494 20.12468408 -22.77667005 15.73021265 -22.0625 9.9375 C-17.4928642 0.96747416 -9.86529733 -3.42265418 0 0 Z " fill="#FAFBFB" transform="translate(1002.0625,396.0625)"/>
<path d="M0 0 C3.58535963 1.39829774 6.82293832 2.95323358 10.125 4.9375 C10.97320313 5.44152344 11.82140625 5.94554687 12.6953125 6.46484375 C16.20612826 8.80340408 17.73029229 10.08299379 18.9375 14.1875 C19.01747974 19.06626399 17.82663918 22.06654427 15 26 C11.85576296 28.8647493 10.12295556 29.93262267 5.875 30.1875 C0.13844187 28.96008328 -5.30414461 25.39227408 -10 22 C-11 19 -11 19 -10.10375977 16.9152832 C-9.63768311 16.13499756 -9.17160645 15.35471191 -8.69140625 14.55078125 C-7.94213867 13.27944336 -7.94213867 13.27944336 -7.17773438 11.98242188 C-6.64470703 11.10134766 -6.11167969 10.22027344 -5.5625 9.3125 C-5.03333984 8.41982422 -4.50417969 7.52714844 -3.95898438 6.60742188 C-2.64832083 4.39936708 -1.3284301 2.19739605 0 0 Z " fill="#E02F4B" transform="translate(829,681)"/>
<path d="M0 0 C2.4375 1.5625 2.4375 1.5625 4 4 C4.38063221 6.3260857 4.71874132 8.65981857 5 11 C2.39643759 11.50333542 -0.20776651 12.00279378 -2.8125 12.5 C-3.55048828 12.64308594 -4.28847656 12.78617188 -5.04882812 12.93359375 C-8.07794391 13.50926281 -10.909196 14 -14 14 C-14.36191797 10.92369721 -14.48225134 8.06793935 -14 5 C-9.79934637 -0.14580069 -6.49712442 -0.94313096 0 0 Z " fill="#DA435D" transform="translate(1018,734)"/>
<path d="M0 0 C3.81203457 0.85442154 6.82612608 2.01362608 9.625 4.8125 C9.69679964 6.33178038 9.70892007 7.85417482 9.6875 9.375 C9.67847656 10.20128906 9.66945313 11.02757812 9.66015625 11.87890625 C9.64855469 12.51699219 9.63695312 13.15507813 9.625 13.8125 C5.56214243 15.44379887 2.42397816 14.11218777 -1.625 12.875 C-2.88828125 12.49472656 -4.1515625 12.11445312 -5.453125 11.72265625 C-6.41734375 11.42230469 -7.3815625 11.12195313 -8.375 10.8125 C-9.53125 7.140625 -9.53125 7.140625 -8.125 4.1875 C-5.60377457 0.76583691 -4.3031122 -0.23906179 0 0 Z " fill="#E03954" transform="translate(890.375,727.1875)"/>
<path d="M0 0 C4.48071284 0.84743917 6.63834347 3.02034989 10 6 C8.68332435 10.60836476 6.98280646 14.22762713 4 18 C2.0625 19.0625 2.0625 19.0625 0 19 C-2.6875 18 -2.6875 18 -5 16 C-6.1875 12.875 -6.1875 12.875 -6 9 C-4.29889417 5.75758919 -2.25328705 2.88028866 0 0 Z " fill="#DF415B" transform="translate(1201,642)"/>
<path d="M0 0 C0.33 0.99 0.66 1.98 1 3 C0.01 3.66 -0.98 4.32 -2 5 C-2.12375 5.66 -2.2475 6.32 -2.375 7 C-3 9 -3 9 -5.0625 10.3125 C-10.11778103 11.49565088 -15.04310902 10.44575987 -20 9 C-19.67 7.35 -19.34 5.7 -19 4 C-17.58398286 3.51891725 -16.16715563 3.04021859 -14.75 2.5625 C-13.96109375 2.29566406 -13.1721875 2.02882813 -12.359375 1.75390625 C-8.06271619 0.38096726 -4.5422495 -0.10323294 0 0 Z " fill="#E71A21" transform="translate(766,525)"/>
<path d="M0 0 C0.33 0.66 0.66 1.32 1 2 C1.60062256 2.02505615 2.20124512 2.0501123 2.82006836 2.07592773 C5.52611437 2.1915528 8.23178283 2.31442936 10.9375 2.4375 C12.35579102 2.49647461 12.35579102 2.49647461 13.80273438 2.55664062 C15.15141602 2.61948242 15.15141602 2.61948242 16.52734375 2.68359375 C17.77632446 2.73858032 17.77632446 2.73858032 19.05053711 2.79467773 C21 3 21 3 22 4 C22.17788885 9.15877659 21.78025021 13.88502642 21 19 C6.65484978 18.48548706 -7.67419961 17.91164184 -22 17 C-22 12.05 -22 7.1 -22 2 C-21.34 1.67 -20.68 1.34 -20 1 C-20.33 5.95 -20.66 10.9 -21 16 C-18.44572266 15.98259766 -18.44572266 15.98259766 -15.83984375 15.96484375 C-3.83569891 15.90846145 8.03661522 15.98183959 20 17 C20 12.71 20 8.42 20 4 C18.57945312 4.02320313 17.15890625 4.04640625 15.6953125 4.0703125 C13.83854691 4.08906771 11.98177565 4.10726817 10.125 4.125 C8.71927734 4.15013672 8.71927734 4.15013672 7.28515625 4.17578125 C6.38925781 4.18222656 5.49335937 4.18867187 4.5703125 4.1953125 C3.74289551 4.20578613 2.91547852 4.21625977 2.06298828 4.22705078 C0 4 0 4 -2 2 C-1.34 1.34 -0.68 0.68 0 0 Z " fill="#CA9DAB" transform="translate(950,766)"/>
<path d="M0 0 C0.33 0.66 0.66 1.32 1 2 C1.60062256 2.02505615 2.20124512 2.0501123 2.82006836 2.07592773 C5.52611437 2.1915528 8.23178283 2.31442936 10.9375 2.4375 C12.35579102 2.49647461 12.35579102 2.49647461 13.80273438 2.55664062 C15.15141602 2.61948242 15.15141602 2.61948242 16.52734375 2.68359375 C17.35999756 2.72025146 18.19265137 2.75690918 19.05053711 2.79467773 C21 3 21 3 22 4 C22.14115161 6.67058851 22.04247107 9.32432238 22 12 C21.34 12 20.68 12 20 12 C20 9.36 20 6.72 20 4 C19.10692139 4.01571045 19.10692139 4.01571045 18.19580078 4.03173828 C15.50557657 4.07323949 12.81541963 4.09930704 10.125 4.125 C8.71927734 4.15013672 8.71927734 4.15013672 7.28515625 4.17578125 C6.38925781 4.18222656 5.49335937 4.18867187 4.5703125 4.1953125 C3.74289551 4.20578613 2.91547852 4.21625977 2.06298828 4.22705078 C0 4 0 4 -2 2 C-1.34 1.34 -0.68 0.68 0 0 Z " fill="#BF8FA0" transform="translate(950,766)"/>
<path d="M0 0 C5.75762166 1.08896667 11.39247819 2.29336293 17 4 C13.34142468 5.31534494 10.91973519 4.65468309 7.25 3.5625 C5.77273438 3.13130859 5.77273438 3.13130859 4.265625 2.69140625 C3.51796875 2.46324219 2.7703125 2.23507812 2 2 C2 3.98 2 5.96 2 8 C0 6 0 6 -0.125 2.875 C-0.08375 1.92625 -0.0425 0.9775 0 0 Z " fill="#CA99A8" transform="translate(877,748)"/>
<path d="M0 0 C0 0.33 0 0.66 0 1 C-1.051875 1.20625 -2.10375 1.4125 -3.1875 1.625 C-7.64407236 2.85689805 -9.35843582 5.31781963 -12 9 C-13 6 -13 6 -11.75 3.4375 C-8.17716366 -1.53895062 -5.64252394 -1.06462716 0 0 Z " fill="#D08394" transform="translate(894,728)"/>
<path d="M0 0 C1.14926266 0.95421808 2.29430541 1.91352045 3.4375 2.875 C4.07558594 3.40867187 4.71367188 3.94234375 5.37109375 4.4921875 C7 6 7 6 8 8 C7.34 8 6.68 8 6 8 C5.34 8.66 4.68 9.32 4 10 C3.32845067 8.71086513 2.66291141 7.41859796 2 6.125 C1.62875 5.40570312 1.2575 4.68640625 0.875 3.9453125 C0 2 0 2 0 0 Z " fill="#D19DAB" transform="translate(1133,696)"/>
<path d="M0 0 C2.1015625 0.42578125 2.1015625 0.42578125 4 1 C2.8803014 2.00593243 1.7540588 3.0045849 0.625 4 C-0.00148438 4.556875 -0.62796875 5.11375 -1.2734375 5.6875 C-3 7 -3 7 -5 7 C-3.7251791 4.15616877 -2.54862922 1.86245982 0 0 Z " fill="#E2798C" transform="translate(1185,631)"/>
<path d="M0 0 C2.64 0 5.28 0 8 0 C8 0.33 8 0.66 8 1 C5.69 1.33 3.38 1.66 1 2 C1.33 3.32 1.66 4.64 2 6 C1.01 5.01 0.02 4.02 -1 3 C-0.67 2.01 -0.34 1.02 0 0 Z " fill="#C29CAB" transform="translate(1007,758)"/>
<path d="M0 0 C2.475 0.99 2.475 0.99 5 2 C1.25 4 1.25 4 -1 4 C-1.33 4.99 -1.66 5.98 -2 7 C-2.33 6.34 -2.66 5.68 -3 5 C-1.5625 2.375 -1.5625 2.375 0 0 Z " fill="#D595A4" transform="translate(829,681)"/>
</svg>
